HIERARCHY
ROOT hip
{
  OFFSET 0 90.174 2.4664
  CHANNELS 6 Xposition Yposition Zposition Zrotation Xrotation Yrotation
  JOINT abdomen
  {
    OFFSET 0 -1.186 -1.5018
    CHANNELS 6 Xposition Yposition Zposition Zrotation Xrotation Yrotation
    JOINT abdomen2
    {
      OFFSET 0 9.964 0.2134
      CHANNELS 6 Xposition Yposition Zposition Zrotation Xrotation Yrotation
      JOINT chest
      {
        OFFSET 0 13.134 -3.2573
        CHANNELS 6 Xposition Yposition Zposition Zrotation Xrotation Yrotation
        JOINT neck
        {
          OFFSET 0 20.686 -1.6905
          CHANNELS 6 Xposition Yposition Zposition Zrotation Xrotation Yrotation
          JOINT head
          {
            OFFSET 0 7.238 -0.1237
            CHANNELS 6 Xposition Yposition Zposition Zrotation Xrotation Yrotation
            End Site
            {
              OFFSET 0 0 0
            }
          }
        }
        JOINT lCollar
        {
          OFFSET 1.7069 20.075 5.0056
          CHANNELS 6 Xposition Yposition Zposition Zrotation Xrotation Yrotation
          JOINT lShldr
          {
            OFFSET 13.6458 -0.047 -4.849
            CHANNELS 6 Xposition Yposition Zposition Zrotation Xrotation Yrotation
            JOINT lForeArm
            {
              OFFSET 28.3255 -0.9759 2.2888
              CHANNELS 6 Xposition Yposition Zposition Zrotation Xrotation Yrotation
              JOINT lHand
              {
                OFFSET 22.1583 -0.53 10.8316
                CHANNELS 6 Xposition Yposition Zposition Zrotation Xrotation Yrotation
                JOINT lThumb1
                {
                  OFFSET 0.786 0.112 2.5817
                  CHANNELS 6 Xposition Yposition Zposition Zrotation Xrotation Yrotation
                  JOINT lThumb2
                  {
                    OFFSET 0.3601 -0.878 4.2331
                    CHANNELS 6 Xposition Yposition Zposition Zrotation Xrotation Yrotation
                    JOINT lThumb2_End
                    {
                      OFFSET 1.8127 -1.216 2.2227
                      CHANNELS 6 Xposition Yposition Zposition Zrotation Xrotation Yrotation
                      End Site
                      {
                        OFFSET 0.0181 -0.0122 0.0222
                      }
                    }
                  }
                }
                JOINT lCarpal1
                {
                  OFFSET 0.9571 1.114 1.7695
                  CHANNELS 6 Xposition Yposition Zposition Zrotation Xrotation Yrotation
                  JOINT lIndex1
                  {
                    OFFSET 4.1246 0.487 4.1451
                    CHANNELS 6 Xposition Yposition Zposition Zrotation Xrotation Yrotation
                    JOINT lIndex2
                    {
                      OFFSET 3.4052 -1.454 2.7682
                      CHANNELS 6 Xposition Yposition Zposition Zrotation Xrotation Yrotation
                      JOINT lIndex2_End
                      {
                        OFFSET 1.4531 -1.795 1.2713
                        CHANNELS 6 Xposition Yposition Zposition Zrotation Xrotation Yrotation
                        End Site
                        {
                          OFFSET 0.0145 -0.0179 0.0127
                        }
                      }
                    }
                  }
                  JOINT lMid1
                  {
                    OFFSET 5.6954 0.21 2.1184
                    CHANNELS 6 Xposition Yposition Zposition Zrotation Xrotation Yrotation
                    JOINT lMid2
                    {
                      OFFSET 3.9766 -1.54 2.3863
                      CHANNELS 6 Xposition Yposition Zposition Zrotation Xrotation Yrotation
                      JOINT lMid2_End
                      {
                        OFFSET 1.4042 -1.926 1.125
                        CHANNELS 6 Xposition Yposition Zposition Zrotation Xrotation Yrotation
                        End Site
                        {
                          OFFSET 0.014 -0.0193 0.0113
                        }
                      }
                    }
                  }
                }
                JOINT lCarpal2
                {
                  OFFSET 2.0956 0.66 -0.3894
                  CHANNELS 6 Xposition Yposition Zposition Zrotation Xrotation Yrotation
                  JOINT lRing1
                  {
                    OFFSET 5.0395 -0.09 2.4971
                    CHANNELS 6 Xposition Yposition Zposition Zrotation Xrotation Yrotation
                    JOINT lRing2
                    {
                      OFFSET 3.7921 -1.552 1.4806
                      CHANNELS 6 Xposition Yposition Zposition Zrotation Xrotation Yrotation
                      JOINT lRing2_End
                      {
                        OFFSET 1.4655 -1.808 0.9609
                        CHANNELS 6 Xposition Yposition Zposition Zrotation Xrotation Yrotation
                        End Site
                        {
                          OFFSET 0.0147 -0.0181 0.0096
                        }
                      }
                    }
                  }
                  JOINT lPinky1
                  {
                    OFFSET 4.9141 -1.269 0.3591
                    CHANNELS 6 Xposition Yposition Zposition Zrotation Xrotation Yrotation
                    JOINT lPinky2
                    {
                      OFFSET 3.1477 -1.685 0.8462
                      CHANNELS 6 Xposition Yposition Zposition Zrotation Xrotation Yrotation
                      JOINT lPinky2_End
                      {
                        OFFSET 0.8055 -1.585 0.7955
                        CHANNELS 6 Xposition Yposition Zposition Zrotation Xrotation Yrotation
                        End Site
                        {
                          OFFSET 0.0081 -0.0158 0.008
                        }
                      }
                    }
                  }
                }
              }
            }
          }
        }
        JOINT rCollar
        {
          OFFSET -1.7069 20.075 5.0056
          CHANNELS 6 Xposition Yposition Zposition Zrotation Xrotation Yrotation
          JOINT rShldr
          {
            OFFSET -13.6458 -0.047 -4.849
            CHANNELS 6 Xposition Yposition Zposition Zrotation Xrotation Yrotation
            JOINT rForeArm
            {
              OFFSET -28.3255 -0.9759 2.2888
              CHANNELS 6 Xposition Yposition Zposition Zrotation Xrotation Yrotation
              JOINT rHand
              {
                OFFSET -22.1583 -0.53 10.8316
                CHANNELS 6 Xposition Yposition Zposition Zrotation Xrotation Yrotation
                JOINT rThumb1
                {
                  OFFSET -0.786 0.112 2.5817
                  CHANNELS 6 Xposition Yposition Zposition Zrotation Xrotation Yrotation
                  JOINT rThumb2
                  {
                    OFFSET -0.3601 -0.878 4.2331
                    CHANNELS 6 Xposition Yposition Zposition Zrotation Xrotation Yrotation
                    JOINT rThumb2_End
                    {
                      OFFSET -1.8127 -1.216 2.2227
                      CHANNELS 6 Xposition Yposition Zposition Zrotation Xrotation Yrotation
                      End Site
                      {
                        OFFSET -0.0181 -0.0122 0.0222
                      }
                    }
                  }
                }
                JOINT rCarpal1
                {
                  OFFSET -0.9571 1.114 1.7695
                  CHANNELS 6 Xposition Yposition Zposition Zrotation Xrotation Yrotation
                  JOINT rIndex1
                  {
                    OFFSET -4.1246 0.487 4.1451
                    CHANNELS 6 Xposition Yposition Zposition Zrotation Xrotation Yrotation
                    JOINT rIndex2
                    {
                      OFFSET -3.4052 -1.454 2.7682
                      CHANNELS 6 Xposition Yposition Zposition Zrotation Xrotation Yrotation
                      JOINT rIndex2_End
                      {
                        OFFSET -1.4531 -1.795 1.2713
                        CHANNELS 6 Xposition Yposition Zposition Zrotation Xrotation Yrotation
                        End Site
                        {
                          OFFSET -0.0145 -0.018 0.0127
                        }
                      }
                    }
                  }
                  JOINT rMid1
                  {
                    OFFSET -5.6954 0.21 2.1184
                    CHANNELS 6 Xposition Yposition Zposition Zrotation Xrotation Yrotation
                    JOINT rMid2
                    {
                      OFFSET -3.9766 -1.54 2.3863
                      CHANNELS 6 Xposition Yposition Zposition Zrotation Xrotation Yrotation
                      JOINT rMid2_End
                      {
                        OFFSET -1.4042 -1.926 1.125
                        CHANNELS 6 Xposition Yposition Zposition Zrotation Xrotation Yrotation
                        End Site
                        {
                          OFFSET -0.014 -0.0193 0.0113
                        }
                      }
                    }
                  }
                }
                JOINT rCarpal2
                {
                  OFFSET -2.0956 0.66 -0.3894
                  CHANNELS 6 Xposition Yposition Zposition Zrotation Xrotation Yrotation
                  JOINT rRing1
                  {
                    OFFSET -5.0395 -0.09 2.4971
                    CHANNELS 6 Xposition Yposition Zposition Zrotation Xrotation Yrotation
                    JOINT rRing2
                    {
                      OFFSET -3.7921 -1.552 1.4806
                      CHANNELS 6 Xposition Yposition Zposition Zrotation Xrotation Yrotation
                      JOINT rRing2_End
                      {
                        OFFSET -1.4655 -1.808 0.9609
                        CHANNELS 6 Xposition Yposition Zposition Zrotation Xrotation Yrotation
                        End Site
                        {
                          OFFSET -0.0147 -0.0181 0.0096
                        }
                      }
                    }
                  }
                  JOINT rPinky1
                  {
                    OFFSET -4.9141 -1.269 0.3592
                    CHANNELS 6 Xposition Yposition Zposition Zrotation Xrotation Yrotation
                    JOINT rPinky2
                    {
                      OFFSET -3.1477 -1.685 0.8462
                      CHANNELS 6 Xposition Yposition Zposition Zrotation Xrotation Yrotation
                      JOINT rPinky2_End
                      {
                        OFFSET -0.8055 -1.585 0.7955
                        CHANNELS 6 Xposition Yposition Zposition Zrotation Xrotation Yrotation
                        End Site
                        {
                          OFFSET -0.0081 -0.0158 0.008
                        }
                      }
                    }
                  }
                }
              }
            }
          }
        }
      }
    }
  }
  JOINT lThigh
  {
    OFFSET 8.367 -8.2066 0.5982
    CHANNELS 6 Xposition Yposition Zposition Zrotation Xrotation Yrotation
    JOINT lShin
    {
      OFFSET 2.1923 -43.463 -0.4932
      CHANNELS 6 Xposition Yposition Zposition Zrotation Xrotation Yrotation
      JOINT lFoot
      {
        OFFSET 0.7333 -45.8593 -2.6451
        CHANNELS 6 Xposition Yposition Zposition Zrotation Xrotation Yrotation
        End Site
        {
          OFFSET 2.6618 -4.2699 12.3931
        }
      }
    }
  }
  JOINT rThigh
  {
    OFFSET -8.367 -8.2066 0.5982
    CHANNELS 6 Xposition Yposition Zposition Zrotation Xrotation Yrotation
    JOINT rShin
    {
      OFFSET -2.1923 -43.463 -0.4931
      CHANNELS 6 Xposition Yposition Zposition Zrotation Xrotation Yrotation
      JOINT rFoot
      {
        OFFSET -0.7333 -45.8593 -2.6451
        CHANNELS 6 Xposition Yposition Zposition Zrotation Xrotation Yrotation
        End Site
        {
          OFFSET -2.6618 -4.2699 12.3931
        }
      }
    }
  }
}
MOTION
Frames:	4
Frame Time:	0.0333333
0 90.174 2.4664 0 0 -0 0 -1.186 -1.5018 0 0 -0 0 9.964 0.2134 0 0 -0 0 13.134 -3.2573 0 0 -0 0 20.686 -1.6905 0 0 -0 0 7.238 -0.1237 0 0 -0 1.7069 20.075 5.0056 0 0 -0 13.6458 -0.047 -4.849 1.66051 0.0835086 5.75766 28.3255 -0.9759 2.2888 -0.0175111 0.895433 15.7816 22.1583 -0.53 10.8316 7.95139e-016 -1.98785e-016 -0 0.786 0.112 2.5817 5.46658e-016 -3.97569e-016 -0 0.3601 -0.878 4.2331 5.96354e-016 0 -0 1.8127 -1.216 2.2227 3.97569e-016 1.98785e-016 9.54166e-015 0.9571 1.114 1.7695 1.49089e-016 -3.97569e-016 -0 4.1246 0.487 4.1451 6.4605e-016 0 3.18055e-015 3.4052 -1.454 2.7682 5.96354e-016 0 3.18055e-015 1.4531 -1.795 1.2713 8.94531e-016 -1.98785e-016 6.36111e-015 5.6954 0.21 2.1184 6.4605e-016 0 3.18055e-015 3.9766 -1.54 2.3863 5.96354e-016 0 3.18055e-015 1.4042 -1.926 1.125 8.94531e-016 -1.98785e-016 6.36111e-015 2.0956 0.66 -0.3894 1.49089e-016 -3.97569e-016 -0 5.0395 -0.09 2.4971 6.4605e-016 0 3.18055e-015 3.7921 -1.552 1.4806 5.96354e-016 0 3.18055e-015 1.4655 -1.808 0.9609 8.94531e-016 -1.98785e-016 6.36111e-015 4.9141 -1.269 0.3591 6.4605e-016 0 3.18055e-015 3.1477 -1.685 0.8462 5.96354e-016 0 3.18055e-015 0.8055 -1.585 0.7955 8.94531e-016 -1.98785e-016 6.36111e-015 -1.7069 20.075 5.0056 0 0 -0 -13.6458 -0.047 -4.849 -1.4496 0.0636048 -5.0245 -28.3255 -0.9759 2.2888 -1.74811 1.20616 -16.8394 -22.1583 -0.53 10.8316 -1.19271e-015 1.98785e-016 -3.18055e-015 -0.786 0.112 2.5817 -3.97569e-016 1.98785e-016 -3.18055e-015 -0.3601 -0.878 4.2331 -2.98177e-016 1.98785e-016 -3.18055e-015 -1.8127 -1.216 2.2227 -2.98177e-016 3.97569e-016 -0 -0.9571 1.114 1.7695 4.96962e-016 0 -6.36111e-015 -4.1246 0.487 4.1451 -9.93923e-017 3.97569e-016 -0 -3.4052 -1.454 2.7682 -8.94531e-016 5.96354e-016 -0 -1.4531 -1.795 1.2713 -3.97569e-016 3.97569e-016 -0 -5.6954 0.21 2.1184 -9.93923e-017 3.97569e-016 -0 -3.9766 -1.54 2.3863 -8.94531e-016 5.96354e-016 -0 -1.4042 -1.926 1.125 -3.97569e-016 3.97569e-016 -0 -2.0956 0.66 -0.3894 4.96962e-016 0 -6.36111e-015 -5.0395 -0.09 2.4971 -9.93923e-017 3.97569e-016 -0 -3.7921 -1.552 1.4806 -8.94531e-016 5.96354e-016 -0 -1.4655 -1.808 0.9609 -3.97569e-016 3.97569e-016 -0 -4.9141 -1.269 0.3592 -9.93923e-017 3.97569e-016 -0 -3.1477 -1.685 0.8462 -8.94531e-016 5.96354e-016 -0 -0.8055 -1.585 0.7955 -3.97569e-016 3.97569e-016 -0 8.367 -8.2066 0.5982 -4.66115 -1.03232 0.120763 2.1923 -43.463 -0.4932 0.00990601 1.55097 0.177175 0.7333 -45.8593 -2.6451 4.65196 -0.54114 -0.255042 -8.367 -8.2066 0.5982 4.66115 -1.03222 -0.120763 -2.1923 -43.463 -0.4931 -0.00990459 1.5509 -0.177176 -0.7333 -45.8593 -2.6451 -4.65196 -0.541171 0.255041 
42.1834 -2.06951 70.2579 0 78.9991 -0 0 -1.186 -1.5018 -0.304426 0.671671 -0.21563 0 9.964 0.2134 -0.606384 1.34445 -0.427732 0 13.134 -3.2573 -0.606384 1.34448 -0.427732 0 20.686 -1.6905 -0.00308026 1.99472 -44.0017 0 7.238 -0.1237 -0.0581418 -15.3423 -26.0165 1.7069 20.075 5.0056 -7.85111 0.498172 -5.59246 13.6458 -0.047 -4.849 -31.4605 -46.0783 -1.98903 28.3255 -0.9759 2.2888 33.9812 -21.5484 -27.6485 22.1583 -0.53 10.8316 -1.37342 -26.3065 -32.1868 0.786 0.112 2.5817 -3.97569e-016 3.97569e-016 -0 0.3601 -0.878 4.2331 -5.96354e-016 3.97569e-016 3.18055e-015 1.8127 -1.216 2.2227 -7.95139e-016 1.98785e-016 3.18055e-015 0.9571 1.114 1.7695 -1.76556e-031 7.95139e-016 1.27222e-014 4.1246 0.487 4.1451 -1.98785e-016 1.98785e-016 9.54166e-015 3.4052 -1.454 2.7682 1.98785e-016 0 -3.18055e-015 1.4531 -1.795 1.2713 -5.96354e-016 -1.98785e-016 -6.36111e-015 5.6954 0.21 2.1184 -1.98785e-016 1.98785e-016 9.54166e-015 3.9766 -1.54 2.3863 1.98785e-016 0 -3.18055e-015 1.4042 -1.926 1.125 -5.96354e-016 -1.98785e-016 -6.36111e-015 2.0956 0.66 -0.3894 -1.76556e-031 7.95139e-016 1.27222e-014 5.0395 -0.09 2.4971 -1.98785e-016 1.98785e-016 9.54166e-015 3.7921 -1.552 1.4806 1.98785e-016 0 -3.18055e-015 1.4655 -1.808 0.9609 -5.96354e-016 -1.98785e-016 -6.36111e-015 4.9141 -1.269 0.3591 -1.98785e-016 1.98785e-016 9.54166e-015 3.1477 -1.685 0.8462 1.98785e-016 0 -3.18055e-015 0.8055 -1.585 0.7955 -5.96354e-016 -1.98785e-016 -6.36111e-015 -1.7069 20.075 5.0056 49.9036 -10.6981 -9.81943 -13.6458 -0.047 -4.849 44.3222 -40.2095 15.2442 -28.3255 -0.9759 2.2888 -34.0473 -23.1221 18.2659 -22.1583 -0.53 10.8316 2.85057 -7.12068 32.2806 -0.786 0.112 2.5817 -9.93923e-016 0 1.59028e-015 -0.3601 -0.878 4.2331 -7.95139e-016 1.59028e-015 3.18055e-015 -1.8127 -1.216 2.2227 -7.95139e-016 1.59028e-015 3.18055e-015 -0.9571 1.114 1.7695 -5.96354e-016 1.59028e-015 1.59028e-015 -4.1246 0.487 4.1451 -9.93923e-016 3.18055e-015 9.54166e-015 -3.4052 -1.454 2.7682 -3.97569e-016 0 3.18055e-015 -1.4531 -1.795 1.2713 -1.98785e-016 0 3.18055e-015 -5.6954 0.21 2.1184 -9.93923e-016 3.18055e-015 9.54166e-015 -3.9766 -1.54 2.3863 -3.97569e-016 0 3.18055e-015 -1.4042 -1.926 1.125 -1.98785e-016 0 3.18055e-015 -2.0956 0.66 -0.3894 -5.96354e-016 1.59028e-015 1.59028e-015 -5.0395 -0.09 2.4971 -9.93923e-016 3.18055e-015 9.54166e-015 -3.7921 -1.552 1.4806 -3.97569e-016 0 3.18055e-015 -1.4655 -1.808 0.9609 -1.98785e-016 0 3.18055e-015 -4.9141 -1.269 0.3592 -9.93923e-016 3.18055e-015 9.54166e-015 -3.1477 -1.685 0.8462 -3.97569e-016 0 3.18055e-015 -0.8055 -1.585 0.7955 -1.98785e-016 0 3.18055e-015 8.367 -8.2066 0.5982 2.49193 10.5058 46.2497 2.1923 -43.463 -0.4932 -4.68362 -1.50168 21.6067 0.7333 -45.8593 -2.6451 10.4012 46.0339 -7.72232 -8.367 -8.2066 0.5982 -5.0016 5.08347 -43.3172 -2.1923 -43.463 -0.4931 6.69472 11.5048 -22.8457 -0.7333 -45.8593 -2.6451 -7.86417 49.6661 -0.811924 
42.1863 -2.04379 70.2598 0 78.6659 -0 0 -1.186 -1.5018 -0.323065 0.934002 -0.211871 0 9.964 0.2134 -0.642803 1.86918 -0.418553 0 13.134 -3.2573 -0.642802 1.86916 -0.418553 0 20.686 -1.6905 -0.00302805 1.38438 -44.0015 0 7.238 -0.1237 -0.331176 -15.531 -26.6508 1.7069 20.075 5.0056 -7.37955 1.47678 -5.68913 13.6458 -0.047 -4.849 -31.4767 -46.0988 -2.40394 28.3255 -0.9759 2.2888 33.9757 -21.5424 -27.6355 22.1583 -0.53 10.8316 -0.468348 -27.9274 -31.3284 0.786 0.112 2.5817 9.93923e-016 7.95139e-016 9.54166e-015 0.3601 -0.878 4.2331 5.96354e-016 1.39149e-015 1.59028e-014 1.8127 -1.216 2.2227 3.97569e-016 1.19271e-015 9.54166e-015 0.9571 1.114 1.7695 3.97569e-016 0 -0 4.1246 0.487 4.1451 7.95139e-016 1.19271e-015 9.54166e-015 3.4052 -1.454 2.7682 9.93923e-016 5.96354e-016 1.59028e-014 1.4531 -1.795 1.2713 9.93923e-016 1.39149e-015 9.54166e-015 5.6954 0.21 2.1184 7.95139e-016 1.19271e-015 9.54166e-015 3.9766 -1.54 2.3863 9.93923e-016 5.96354e-016 1.59028e-014 1.4042 -1.926 1.125 9.93923e-016 1.39149e-015 9.54166e-015 2.0956 0.66 -0.3894 3.97569e-016 0 -0 5.0395 -0.09 2.4971 7.95139e-016 1.19271e-015 9.54166e-015 3.7921 -1.552 1.4806 9.93923e-016 5.96354e-016 1.59028e-014 1.4655 -1.808 0.9609 9.93923e-016 1.39149e-015 9.54166e-015 4.9141 -1.269 0.3591 7.95139e-016 1.19271e-015 9.54166e-015 3.1477 -1.685 0.8462 9.93923e-016 5.96354e-016 1.59028e-014 0.8055 -1.585 0.7955 9.93923e-016 1.39149e-015 9.54166e-015 -1.7069 20.075 5.0056 49.7109 -11.0391 -8.27951 -13.6458 -0.047 -4.849 43.2404 -40.0807 13.9454 -28.3255 -0.9759 2.2888 -33.7707 -22.783 18.0929 -22.1583 -0.53 10.8316 2.45847 -8.35392 32.0586 -0.786 0.112 2.5817 -9.93923e-016 -3.18055e-015 -0 -0.3601 -0.878 4.2331 2.11591e-007 2.38411e-008 1.4075e-008 -1.8127 -1.216 2.2227 5.96354e-016 -4.77083e-015 1.59028e-015 -0.9571 1.114 1.7695 -3.97569e-016 -3.18055e-015 1.59028e-015 -4.1246 0.487 4.1451 -7.95139e-016 -3.18055e-015 4.77083e-015 -3.4052 -1.454 2.7682 2.11591e-007 2.38411e-008 1.4075e-008 -1.4531 -1.795 1.2713 7.95139e-016 -4.77083e-015 -0 -5.6954 0.21 2.1184 -7.95139e-016 -3.18055e-015 4.77083e-015 -3.9766 -1.54 2.3863 2.11591e-007 2.38411e-008 1.4075e-008 -1.4042 -1.926 1.125 7.95139e-016 -4.77083e-015 -0 -2.0956 0.66 -0.3894 -3.97569e-016 -3.18055e-015 1.59028e-015 -5.0395 -0.09 2.4971 -7.95139e-016 -3.18055e-015 4.77083e-015 -3.7921 -1.552 1.4806 2.11591e-007 2.38411e-008 1.4075e-008 -1.4655 -1.808 0.9609 7.95139e-016 -4.77083e-015 -0 -4.9141 -1.269 0.3592 -7.95139e-016 -3.18055e-015 4.77083e-015 -3.1477 -1.685 0.8462 2.11591e-007 2.38411e-008 1.4075e-008 -0.8055 -1.585 0.7955 7.95139e-016 -4.77083e-015 -0 8.367 -8.2066 0.5982 2.62859 10.8666 46.4048 2.1923 -43.463 -0.4932 -4.85988 -1.33446 21.6123 0.7333 -45.8593 -2.6451 10.6331 45.9286 -7.98801 -8.367 -8.2066 0.5982 -5.15183 5.63744 -44.4253 -2.1923 -43.463 -0.4931 6.6924 11.4781 -22.8562 -0.7333 -45.8593 -2.6451 -9.44835 49.5859 1.04889 
42.1889 -2.01809 70.2615 0 78.3326 -0 0 -1.186 -1.5018 -0.341778 1.19926 -0.208422 -7.10543e-015 9.964 0.2134 -0.679413 2.39973 -0.409818 0 13.134 -3.2573 -0.679413 2.39972 -0.409817 -1.42109e-014 20.686 -1.6905 -0.00297219 0.773691 -44.0016 -7.10543e-015 7.238 -0.1237 -0.606755 -15.7168 -27.2869 1.7069 20.075 5.0056 -6.90543 2.45611 -5.7941 13.6458 -0.047 -4.849 -31.493 -46.1191 -2.81909 28.3255 -0.9759 2.2888 33.9702 -21.5364 -27.6225 22.1583 -0.53 10.8316 0.482814 -29.5427 -30.4233 0.786 0.112 2.5817 5.96354e-016 3.97569e-016 -0 0.3601 -0.878 4.2331 -4.41391e-032 7.95139e-016 3.18055e-015 1.8127 -1.216 2.2227 3.97569e-016 5.96354e-016 3.18055e-015 0.9571 1.114 1.7695 5.96354e-016 1.98785e-016 -0 4.1246 0.487 4.1451 1.98785e-016 -7.95139e-016 3.18055e-015 3.4052 -1.454 2.7682 1.98785e-016 7.95139e-016 3.18055e-015 1.4531 -1.795 1.2713 5.96354e-016 5.96354e-016 3.18055e-015 5.6954 0.21 2.1184 1.98785e-016 -7.95139e-016 3.18055e-015 3.9766 -1.54 2.3863 1.98785e-016 7.95139e-016 3.18055e-015 1.4042 -1.926 1.125 5.96354e-016 5.96354e-016 3.18055e-015 2.0956 0.66 -0.3894 5.96354e-016 1.98785e-016 -0 5.0395 -0.09 2.4971 1.98785e-016 -7.95139e-016 3.18055e-015 3.7921 -1.552 1.4806 1.98785e-016 7.95139e-016 3.18055e-015 1.4655 -1.808 0.9609 5.96354e-016 5.96354e-016 3.18055e-015 4.9141 -1.269 0.3591 1.98785e-016 -7.95139e-016 3.18055e-015 3.1477 -1.685 0.8462 1.98785e-016 7.95139e-016 3.18055e-015 0.8055 -1.585 0.7955 5.96354e-016 5.96354e-016 3.18055e-015 -1.7069 20.075 5.0056 49.5272 -11.3854 -6.73687 -13.6458 -0.047 -4.849 42.1635 -39.933 12.6509 -28.3255 -0.9759 2.2888 -33.4935 -22.4447 17.9185 -22.1583 -0.53 10.8316 2.05936 -9.58819 31.8268 -0.786 0.112 2.5817 3.97569e-016 3.18055e-015 -0 -0.3601 -0.878 4.2331 -5.96354e-016 0 3.18055e-015 -1.8127 -1.216 2.2227 -3.97569e-016 0 3.18055e-015 -0.9571 1.114 1.7695 1.98785e-016 1.59028e-015 -1.59028e-015 -4.1246 0.487 4.1451 -5.96354e-016 -1.59028e-015 9.54166e-015 -3.4052 -1.454 2.7682 -1.98785e-016 0 -0 -1.4531 -1.795 1.2713 -0 0 1.59028e-015 -5.6954 0.21 2.1184 -5.96354e-016 -1.59028e-015 9.54166e-015 -3.9766 -1.54 2.3863 -1.98785e-016 0 -0 -1.4042 -1.926 1.125 -0 0 1.59028e-015 -2.0956 0.66 -0.3894 1.98785e-016 1.59028e-015 -1.59028e-015 -5.0395 -0.09 2.4971 -5.96354e-016 -1.59028e-015 9.54166e-015 -3.7921 -1.552 1.4806 -1.98785e-016 0 -0 -1.4655 -1.808 0.9609 -0 0 1.59028e-015 -4.9141 -1.269 0.3592 -5.96354e-016 -1.59028e-015 9.54166e-015 -3.1477 -1.685 0.8462 -1.98785e-016 0 -0 -0.8055 -1.585 0.7955 -0 0 1.59028e-015 8.367 -8.2066 0.5982 2.76261 11.2299 46.5596 2.1923 -43.463 -0.4932 -5.03606 -1.17293 21.6183 0.7333 -45.8593 -2.6451 10.8653 45.8255 -8.25347 -8.367 -8.2066 0.5982 -5.29279 6.1941 -45.5352 -2.1923 -43.463 -0.4931 6.69029 11.4541 -22.8655 -0.7333 -45.8593 -2.6451 -11.0249 49.4717 2.90282 
